<?xml version="1.0" ?><!DOCTYPE svg  PUBLIC '-//W3C//DTD SVG 1.1//EN'  'http://www.w3.org/Graphics/SVG/1.1/DTD/svg11.dtd'><svg enable-background="new 0 0 512 512" height="512px" id="Calque_1" version="1.1" viewBox="0 0 512 512" width="512px" xml:space="preserve" xmlns="http://www.w3.org/2000/svg" xmlns:xlink="http://www.w3.org/1999/xlink"><path d="M459.98,125.77H340.12v-45c0-10.49-8.53-19.02-19.02-19.02H190.9c-10.49,0-19.02,8.53-19.02,19.02v45H52.02  c-10.49,0-19.02,8.53-19.02,19.02v286.44c0,10.48,8.53,19.02,19.02,19.02h407.96c10.49,0,19.02-8.53,19.02-19.02V144.79  C479,134.3,470.47,125.77,459.98,125.77z M183.88,80.77c0-3.87,3.15-7.02,7.02-7.02h130.2c3.87,0,7.02,3.15,7.02,7.02v45H183.88  V80.77z M467,431.23c0,3.87-3.15,7.02-7.02,7.02H52.02c-3.87,0-7.02-3.15-7.02-7.02V224.5l85.74,68.2c1.07,0.85,2.38,1.31,3.74,1.31  h79.71v8.1c0,10.49,8.54,19.02,19.02,19.02h45.58c10.48,0,19.01-8.53,19.01-19.02v-8.1h79.72c1.36,0,2.67-0.46,3.73-1.31L467,224.5  V431.23z M226.2,302.11V273.9c0-3.87,3.14-7.02,7.02-7.02h45.57c3.86,0,7.01,3.15,7.01,7.02v28.21c0,3.87-3.14,7.02-7.01,7.02  h-45.58C229.34,309.13,226.2,305.98,226.2,302.11z M467,209.16l-91.58,72.85H297.8v-8.11c0-10.49-8.53-19.02-19.01-19.02h-45.58  c-10.48,0-19.02,8.53-19.02,19.02v8.11h-77.62L45,209.16v-64.37c0-3.87,3.15-7.02,7.02-7.02h407.96c3.87,0,7.02,3.15,7.02,7.02  V209.16z" fill="#788C23"/><path d="M467,224.5v206.73c0,3.87-3.15,7.02-7.02,7.02H52.02c-3.87,0-7.02-3.15-7.02-7.02V224.5l85.74,68.2  c1.07,0.85,2.38,1.31,3.74,1.31h79.71v8.1c0,10.49,8.54,19.02,19.02,19.02h45.58c10.48,0,19.01-8.53,19.01-19.02v-8.1h79.72  c1.36,0,2.67-0.46,3.73-1.31L467,224.5z" fill="#A9C352"/><path d="M467,144.79v64.37l-91.58,72.85H297.8v-8.11c0-10.49-8.53-19.02-19.01-19.02h-45.58  c-10.48,0-19.02,8.53-19.02,19.02v8.11h-77.62L45,209.16v-64.37c0-3.87,3.15-7.02,7.02-7.02h407.96  C463.85,137.77,467,140.92,467,144.79z" fill="#DBF471"/></svg>